# xmcd CD database file
#
# Track frame offsets:
#	150
#	21870
#	49272
#	87492
#	104552
#	135017
#	162965
#	209617
#	234255
#	261065
#	294365
#
# Disc length: 4316 seconds
#
# Revision: 1
# Processed by: cddbd v1.4PL0 Copyright (c) Steve Scherf et al.
# Submitted via: CDex 1.50Beta7
#
DISCID=9310da0b
DTITLE=The Afro House Of Irma - Afrodesia Vol. 2
DYEAR=2001
DGENRE=Jazz
TTITLE0=Jessica Lauren - The Name Of Fela Will Always Stand For Freedom
TTITLE1=Monday Michiru - Higher (Spiritual Life Dub)
TTITLE2=Mysterious Traveller - Green Africa
TTITLE3=Art Konik - Afro Money
TTITLE4=Unitedeye Vs. Souldrummers - Sambana
TTITLE5=Belladonna - Black Is Back
TTITLE6=Su-Paka-Pooh - Spiral
TTITLE7=U.F.O. - Tres Amigos (Organic Audio Mix)
TTITLE8=The Groove Re Gatta - Hey Brother
TTITLE9=RAS - Exit Routine
TTITLE10=Jaymz Nylon - Shango
EXTD=YEAR: 2001
EXTT0=
EXTT1=
EXTT2=
EXTT3=
EXTT4=
EXTT5=
EXTT6=
EXTT7=
EXTT8=
EXTT9=
EXTT10=
PLAYORDER=
